<svg width="25" height="13" viewBox="0 0 25 13" fill="none" xmlns="http://www.w3.org/2000/svg">
<path d="M5.50586 10H0.310547V0.197266H5.28711V1.23633H1.45898V4.49707H5V5.5293H1.45898V8.96094H5.50586V10ZM17.2227 12.5498H16.2451V10H7.24219V3H8.36328V9.0498H11.1455V3H12.2666V9.0498H15.0557V3H16.1768V9.0498H17.2227V12.5498ZM24.4072 6.78027H19.4648C19.4831 7.55957 19.6927 8.16113 20.0938 8.58496C20.4948 9.00879 21.0462 9.2207 21.748 9.2207C22.5365 9.2207 23.2611 8.96094 23.9219 8.44141V9.49414C23.3066 9.94076 22.4932 10.1641 21.4814 10.1641C20.4925 10.1641 19.7155 9.84733 19.1504 9.21387C18.5853 8.57585 18.3027 7.68034 18.3027 6.52734C18.3027 5.43815 18.6104 4.55176 19.2256 3.86816C19.8454 3.18001 20.6133 2.83594 21.5293 2.83594C22.4453 2.83594 23.154 3.13216 23.6553 3.72461C24.1566 4.31706 24.4072 5.13965 24.4072 6.19238V6.78027ZM23.2588 5.83008C23.2542 5.18294 23.097 4.67936 22.7871 4.31934C22.4818 3.95931 22.0557 3.7793 21.5088 3.7793C20.9801 3.7793 20.5312 3.96842 20.1621 4.34668C19.793 4.72493 19.5651 5.2194 19.4785 5.83008H23.2588ZM22.6846 1.67383C22.5023 1.67383 22.3451 1.61003 22.2129 1.48242C22.0807 1.35482 22.0146 1.19303 22.0146 0.99707C22.0146 0.805664 22.0785 0.646159 22.2061 0.518555C22.3337 0.390951 22.4886 0.327148 22.6709 0.327148C22.8623 0.327148 23.0241 0.393229 23.1562 0.525391C23.2884 0.652995 23.3545 0.810221 23.3545 0.99707C23.3545 1.18392 23.2907 1.34342 23.1631 1.47559C23.0355 1.60775 22.876 1.67383 22.6846 1.67383ZM20.0596 1.67383C19.8682 1.67383 19.7041 1.60775 19.5674 1.47559C19.4352 1.33887 19.3691 1.17936 19.3691 0.99707C19.3691 0.805664 19.4329 0.646159 19.5605 0.518555C19.6927 0.390951 19.8522 0.327148 20.0391 0.327148C20.2259 0.327148 20.3877 0.393229 20.5244 0.525391C20.6611 0.652995 20.7295 0.810221 20.7295 0.99707C20.7295 1.18392 20.6634 1.34342 20.5312 1.47559C20.3991 1.60775 20.2419 1.67383 20.0596 1.67383Z" fill="#15499F"/>
</svg>
