<svg width="139" height="30" viewBox="0 0 139 30" fill="none" xmlns="http://www.w3.org/2000/svg">
<path d="M44.1919 16.272C44.1919 17.456 44.0053 18.4907 43.6319 19.376C43.2693 20.2507 42.7146 20.9334 41.9679 21.424C41.2213 21.9147 40.2666 22.16 39.1039 22.16C38.0373 22.16 37.1413 21.952 36.4159 21.536C35.7013 21.1094 35.1466 20.5174 34.7519 19.76C34.3679 18.992 34.1333 18.096 34.0479 17.072H31.8559V22H29.4399V10.576H31.8559V15.056H34.0959C34.2666 13.6267 34.7626 12.496 35.5839 11.664C36.4053 10.8214 37.5839 10.4 39.1199 10.4C40.2719 10.4 41.2213 10.6454 41.9679 11.136C42.7253 11.616 43.2853 12.2987 43.6479 13.184C44.0106 14.0587 44.1919 15.088 44.1919 16.272ZM36.5279 16.272C36.5279 17.4667 36.7359 18.4107 37.1519 19.104C37.5679 19.7867 38.2186 20.128 39.1039 20.128C40.0213 20.128 40.6826 19.7867 41.0879 19.104C41.4933 18.4107 41.6959 17.4667 41.6959 16.272C41.6959 15.0667 41.4933 14.1227 41.0879 13.44C40.6826 12.7574 40.0319 12.416 39.1359 12.416C38.2293 12.416 37.5679 12.7574 37.1519 13.44C36.7359 14.1227 36.5279 15.0667 36.5279 16.272Z" fill="#2F2F34"/>
<path d="M58.7889 13.264L55.5729 17.456L59.0929 22H56.5489L53.2209 17.568V22H50.9969V17.568L47.6689 22H45.1249L48.6449 17.456L45.4289 13.264H47.8929L50.9969 17.504V13.264H53.2209V17.504L56.3249 13.264H58.7889Z" fill="#2F2F34"/>
<path d="M62.7257 13.264V16.624H66.0537V13.264H68.4377V22H66.0537V18.4H62.7257V22H60.3417V13.264H62.7257Z" fill="#2F2F34"/>
<path d="M70.9354 22V13.264H73.3194V16.64H74.4714C75.8048 16.64 76.7914 16.8534 77.4314 17.28C78.0714 17.7067 78.3914 18.352 78.3914 19.216C78.3914 20.0587 78.0928 20.736 77.4954 21.248C76.8981 21.7494 75.9168 22 74.5514 22H70.9354ZM79.6554 22V13.264H82.0394V22H79.6554ZM73.3194 20.352H74.4234C74.8928 20.352 75.2714 20.2667 75.5594 20.096C75.8581 19.9254 76.0074 19.6427 76.0074 19.248C76.0074 18.608 75.4688 18.288 74.3914 18.288H73.3194V20.352Z" fill="#2F2F34"/>
<path d="M86.8332 13.264V16.72C86.8332 16.9014 86.8225 17.1254 86.8012 17.392C86.7905 17.6587 86.7745 17.9307 86.7532 18.208C86.7425 18.4854 86.7265 18.7307 86.7052 18.944C86.6839 19.1574 86.6679 19.3067 86.6572 19.392L90.6892 13.264H93.5532V22H91.2492V18.512C91.2492 18.224 91.2599 17.9094 91.2812 17.568C91.3025 17.216 91.3239 16.8907 91.3452 16.592C91.3772 16.2827 91.3985 16.048 91.4092 15.888L87.3932 22H84.5292V13.264H86.8332ZM92.8972 9.50403C92.8439 10.0587 92.6892 10.5494 92.4332 10.976C92.1772 11.392 91.7772 11.7174 91.2332 11.952C90.6892 12.1867 89.9585 12.304 89.0412 12.304C88.1025 12.304 87.3665 12.192 86.8332 11.968C86.3105 11.7334 85.9372 11.408 85.7132 10.992C85.4892 10.576 85.3559 10.08 85.3132 9.50403H87.4412C87.4945 10.0907 87.6439 10.48 87.8892 10.672C88.1345 10.864 88.5345 10.96 89.0892 10.96C89.5479 10.96 89.9212 10.8587 90.2092 10.656C90.5079 10.4427 90.6839 10.0587 90.7372 9.50403H92.8972Z" fill="#2F2F34"/>
<path d="M100.002 22V10.576H107.218V12.576H102.418V14.96H103.378C104.456 14.96 105.336 15.1094 106.018 15.408C106.712 15.7067 107.224 16.1174 107.554 16.64C107.885 17.1627 108.05 17.76 108.05 18.432C108.05 19.5627 107.672 20.4427 106.914 21.072C106.168 21.6907 104.973 22 103.33 22H100.002ZM102.418 20.016H103.234C103.97 20.016 104.546 19.8987 104.962 19.664C105.389 19.4294 105.602 19.0187 105.602 18.432C105.602 17.824 105.373 17.424 104.914 17.232C104.456 17.04 103.832 16.944 103.042 16.944H102.418V20.016Z" fill="#2F2F34"/>
<path d="M113.598 13.088C114.771 13.088 115.667 13.344 116.286 13.856C116.915 14.3574 117.23 15.1307 117.23 16.176V22H115.566L115.102 20.816H115.038C114.664 21.2854 114.27 21.6267 113.854 21.84C113.438 22.0534 112.867 22.16 112.142 22.16C111.363 22.16 110.718 21.936 110.206 21.488C109.694 21.0294 109.438 20.3307 109.438 19.392C109.438 18.464 109.763 17.7814 110.414 17.344C111.064 16.896 112.04 16.6507 113.342 16.608L114.862 16.56V16.176C114.862 15.7174 114.739 15.3814 114.494 15.168C114.259 14.9547 113.928 14.848 113.502 14.848C113.075 14.848 112.659 14.912 112.254 15.04C111.848 15.1574 111.443 15.3067 111.038 15.488L110.254 13.872C110.723 13.6267 111.24 13.4347 111.806 13.296C112.382 13.1574 112.979 13.088 113.598 13.088ZM114.862 17.952L113.934 17.984C113.166 18.0054 112.632 18.144 112.334 18.4C112.035 18.656 111.886 18.992 111.886 19.408C111.886 19.7707 111.992 20.032 112.206 20.192C112.419 20.3414 112.696 20.416 113.038 20.416C113.55 20.416 113.982 20.2667 114.334 19.968C114.686 19.6587 114.862 19.2267 114.862 18.672V17.952Z" fill="#2F2F34"/>
<path d="M122.054 13.264V16.624H125.382V13.264H127.766V22H125.382V18.4H122.054V22H119.67V13.264H122.054Z" fill="#2F2F34"/>
<path d="M135.992 13.264H138.616L135.16 17.456L138.92 22H136.216L132.648 17.568V22H130.264V13.264H132.648V17.504L135.992 13.264Z" fill="#2F2F34"/>
<path d="M18 11C18 15.9706 13.9706 20 9 20C4.02944 20 0 15.9706 0 11C0 6.02944 4.02944 2 9 2C13.9706 2 18 6.02944 18 11Z" fill="#FF7628"/>
<path d="M18 28C18 29.1046 13.9706 30 9 30C4.02944 30 0 29.1046 0 28C0 26.8954 4.02944 26 9 26C13.9706 26 18 26.8954 18 28Z" fill="#FF7628"/>
</svg>
